<svg width="134" height="133" viewBox="0 0 134 133" fill="none" xmlns="http://www.w3.org/2000/svg">
<g filter="url(#filter0_d)">
<path d="M31 66H39V74H47V82H55V90H63V98H71V90H79V82H87V74H95V66H103V58H95V66H87V74H79V82H71V90H63V82H55V74H47V66H39V58H31V66Z" fill="#FFA89C" fill-opacity="0.6"/>
<path d="M31 35H39V43H47V51H55V59H63V67H71V59H79V51H87V43H95V35H103V27H95V35H87V43H79V51H71V59H63V51H55V43H47V35H39V27H31V35Z" fill="#FFA89C" fill-opacity="0.6"/>
<path d="M30.5 66V66.5H31H38.5V74V74.5H39H46.5V82V82.5H47H54.5V90V90.5H55H62.5V98V98.5H63H71H71.5V98V90.5H79H79.5V90V82.5H87H87.5V82V74.5H95H95.5V74V66.5H103H103.5V66V58V57.5H103H95H94.5V58V65.5H87H86.5V66V73.5H79H78.5V74V81.5H71H70.5V82V89.5H63.5V82V81.5H63H55.5V74V73.5H55H47.5V66V65.5H47H39.5V58V57.5H39H31H30.5V58V66ZM30.5 35V35.5H31H38.5V43V43.5H39H46.5V51V51.5H47H54.5V59V59.5H55H62.5V67V67.5H63H71H71.5V67V59.5H79H79.5V59V51.5H87H87.5V51V43.5H95H95.5V43V35.5H103H103.5V35V27V26.5H103H95H94.5V27V34.5H87H86.5V35V42.5H79H78.5V43V50.5H71H70.5V51V58.5H63.5V51V50.5H63H55.5V43V42.5H55H47.5V35V34.5H47H39.5V27V26.5H39H31H30.5V27V35Z" stroke="white"/>
</g>
<defs>
<filter id="filter0_d" x="0" y="0" width="134" height="133" filterUnits="userSpaceOnUse" color-interpolation-filters="sRGB">
<feFlood flood-opacity="0" result="BackgroundImageFix"/>
<feColorMatrix in="SourceAlpha" type="matrix" values="0 0 0 0 0 0 0 0 0 0 0 0 0 0 0 0 0 0 127 0"/>
<feOffset dy="4"/>
<feGaussianBlur stdDeviation="15"/>
<feColorMatrix type="matrix" values="0 0 0 0 1 0 0 0 0 0.658824 0 0 0 0 0.611765 0 0 0 1 0"/>
<feBlend mode="normal" in2="BackgroundImageFix" result="effect1_dropShadow"/>
<feBlend mode="normal" in="SourceGraphic" in2="effect1_dropShadow" result="shape"/>
</filter>
</defs>
</svg>
